{
  "asset": {
    "version": "2.0",
    "generator": "THREE.GLTFExporter r172",
    "extras": {
      "title": "Shiv Vyas — coding and music studio",
      "author": "Shiv Vyas",
      "description": "Original geometric reconstruction of Shiv Vyas’s desk reference: dual displays, laptop, mechanical keyboard and music equipment.",
      "source": "scripts/model/build-desk.mjs"
    }
  },
  "scenes": [
    {
      "name": "Shiv Vyas — coding and music studio",
      "nodes": [
        0,
        1,
        2,
        3,
        4,
        5,
        6,
        7,
        8,
        9,
        10,
        11,
        12,
        13,
        14,
        15,
        16,
        17,
        18,
        19,
        20,
        21,
        22,
        23,
        24,
        25,
        26
      ]
    }
  ],
  "scene": 0,
  "nodes": [
    {
      "name": "Warm walnut desktop",
      "mesh": 0
    },
    {
      "name": "Walnut end grain",
      "mesh": 1
    },
    {
      "name": "Cognac desk mat",
      "mesh": 2
    },
    {
      "name": "Fine wood grain",
      "mesh": 3
    },
    {
      "name": "Soft black polymer",
      "mesh": 4
    },
    {
      "name": "Anodized graphite",
      "mesh": 5
    },
    {
      "name": "Manhattan wallpaper",
      "mesh": 6
    },
    {
      "name": "Warm status LEDs",
      "mesh": 7
    },
    {
      "name": "Rubber cable and cushions",
      "mesh": 8
    },
    {
      "name": "Brushed silver aluminum",
      "mesh": 9
    },
    {
      "name": "Laptop display glass",
      "mesh": 10
    },
    {
      "name": "Editor panels",
      "mesh": 11
    },
    {
      "name": "Editor syntax orange",
      "mesh": 12
    },
    {
      "name": "Cream ceramic",
      "mesh": 13
    },
    {
      "name": "Audio meter green",
      "mesh": 14
    },
    {
      "name": "Editor syntax blue",
      "mesh": 15
    },
    {
      "name": "Editor text",
      "mesh": 16
    },
    {
      "name": "Signature orange accent",
      "mesh": 17
    },
    {
      "name": "Key legends",
      "mesh": 18
    },
    {
      "name": "Slate keycaps",
      "mesh": 19
    },
    {
      "name": "Light gray keycaps",
      "mesh": 20
    },
    {
      "name": "Warm white accessories",
      "mesh": 21
    },
    {
      "name": "Coffee",
      "mesh": 22
    },
    {
      "name": "Audio interface red aluminum",
      "mesh": 23
    },
    {
      "name": "Microphone steel grille",
      "mesh": 24
    },
    {
      "name": "Book pages",
      "mesh": 25
    },
    {
      "name": "Book jacket",
      "mesh": 26
    }
  ],
  "bufferViews": [
    {
      "buffer": 0,
      "byteOffset": 0,
      "byteLength": 2544,
      "target": 34962,
      "byteStride": 12
    },
    {
      "buffer": 0,
      "byteOffset": 2544,
      "byteLength": 2544,
      "target": 34962,
      "byteStride": 12
    },
    {
      "buffer": 0,
      "byteOffset": 5088,
      "byteLength": 1696,
      "target": 34962,
      "byteStride": 8
    },
    {
      "buffer": 0,
      "byteOffset": 6784,
      "byteLength": 1800,
      "target": 34963
    },
    {
      "buffer": 0,
      "byteOffset": 8584,
      "byteLength": 2544,
      "target": 34962,
      "byteStride": 12
    },
    {
      "buffer": 0,
      "byteOffset": 11128,
      "byteLength": 2544,
      "target": 34962,
      "byteStride": 12
    },
    {
      "buffer": 0,
      "byteOffset": 13672,
      "byteLength": 1696,
      "target": 34962,
      "byteStride": 8
    },
    {
      "buffer": 0,
      "byteOffset": 15368,
      "byteLength": 1800,
      "target": 34963
    },
    {
      "buffer": 0,
      "byteOffset": 17168,
      "byteLength": 2256,
      "target": 34962,
      "byteStride": 12
    },
    {
      "buffer": 0,
      "byteOffset": 19424,
      "byteLength": 2256,
      "target": 34962,
      "byteStride": 12
    },
    {
      "buffer": 0,
      "byteOffset": 21680,
      "byteLength": 1504,
      "target": 34962,
      "byteStride": 8
    },
    {
      "buffer": 0,
      "byteOffset": 23184,
      "byteLength": 1800,
      "target": 34963
    },
    {
      "buffer": 0,
      "byteOffset": 24984,
      "byteLength": 4896,
      "target": 34962,
      "byteStride": 12
    },
    {
      "buffer": 0,
      "byteOffset": 29880,
      "byteLength": 4896,
      "target": 34962,
      "byteStride": 12
    },
    {
      "buffer": 0,
      "byteOffset": 34776,
      "byteLength": 3264,
      "target": 34962,
      "byteStride": 8
    },
    {
      "buffer": 0,
      "byteOffset": 38040,
      "byteLength": 1224,
      "target": 34963
    },
    {
      "buffer": 0,
      "byteOffset": 39264,
      "byteLength": 117900,
      "target": 34962,
      "byteStride": 12
    },
    {
      "buffer": 0,
      "byteOffset": 157164,
      "byteLength": 117900,
      "target": 34962,
      "byteStride": 12
    },
    {
      "buffer": 0,
      "byteOffset": 275064,
      "byteLength": 78600,
      "target": 34962,
      "byteStride": 8
    },
    {
      "buffer": 0,
      "byteOffset": 353664,
      "byteLength": 72696,
      "target": 34963
    },
    {
      "buffer": 0,
      "byteOffset": 426360,
      "byteLength": 45804,
      "target": 34962,
      "byteStride": 12
    },
    {
      "buffer": 0,
      "byteOffset": 472164,
      "byteLength": 45804,
      "target": 34962,
      "byteStride": 12
    },
    {
      "buffer": 0,
      "byteOffset": 517968,
      "byteLength": 30536,
      "target": 34962,
      "byteStride": 8
    },
    {
      "buffer": 0,
      "byteOffset": 548504,
      "byteLength": 32472,
      "target": 34963
    },
    {
      "buffer": 0,
      "byteOffset": 580976,
      "byteLength": 96,
      "target": 34962,
      "byteStride": 12
    },
    {
      "buffer": 0,
      "byteOffset": 581072,
      "byteLength": 96,
      "target": 34962,
      "byteStride": 12
    },
    {
      "buffer": 0,
      "byteOffset": 581168,
      "byteLength": 64,
      "target": 34962,
      "byteStride": 8
    },
    {
      "buffer": 0,
      "byteOffset": 581232,
      "byteLength": 24,
      "target": 34963
    },
    {
      "buffer": 0,
      "byteOffset": 581256,
      "byteLength": 864,
      "target": 34962,
      "byteStride": 12
    },
    {
      "buffer": 0,
      "byteOffset": 582120,
      "byteLength": 864,
      "target": 34962,
      "byteStride": 12
    },
    {
      "buffer": 0,
      "byteOffset": 582984,
      "byteLength": 576,
      "target": 34962,
      "byteStride": 8
    },
    {
      "buffer": 0,
      "byteOffset": 583560,
      "byteLength": 216,
      "target": 34963
    },
    {
      "buffer": 0,
      "byteOffset": 583776,
      "byteLength": 12288,
      "target": 34962,
      "byteStride": 12
    },
    {
      "buffer": 0,
      "byteOffset": 596064,
      "byteLength": 12288,
      "target": 34962,
      "byteStride": 12
    },
    {
      "buffer": 0,
      "byteOffset": 608352,
      "byteLength": 8192,
      "target": 34962,
      "byteStride": 8
    },
    {
      "buffer": 0,
      "byteOffset": 616544,
      "byteLength": 9792,
      "target": 34963
    },
    {
      "buffer": 0,
      "byteOffset": 626336,
      "byteLength": 33432,
      "target": 34962,
      "byteStride": 12
    },
    {
      "buffer": 0,
      "byteOffset": 659768,
      "byteLength": 33432,
      "target": 34962,
      "byteStride": 12
    },
    {
      "buffer": 0,
      "byteOffset": 693200,
      "byteLength": 22288,
      "target": 34962,
      "byteStride": 8
    },
    {
      "buffer": 0,
      "byteOffset": 715488,
      "byteLength": 24600,
      "target": 34963
    },
    {
      "buffer": 0,
      "byteOffset": 740088,
      "byteLength": 2256,
      "target": 34962,
      "byteStride": 12
    },
    {
      "buffer": 0,
      "byteOffset": 742344,
      "byteLength": 2256,
      "target": 34962,
      "byteStride": 12
    },
    {
      "buffer": 0,
      "byteOffset": 744600,
      "byteLength": 1504,
      "target": 34962,
      "byteStride": 8
    },
    {
      "buffer": 0,
      "byteOffset": 746104,
      "byteLength": 1800,
      "target": 34963
    },
    {
      "buffer": 0,
      "byteOffset": 747904,
      "byteLength": 576,
      "target": 34962,
      "byteStride": 12
    },
    {
      "buffer": 0,
      "byteOffset": 748480,
      "byteLength": 576,
      "target": 34962,
      "byteStride": 12
    },
    {
      "buffer": 0,
      "byteOffset": 749056,
      "byteLength": 384,
      "target": 34962,
      "byteStride": 8
    },
    {
      "buffer": 0,
      "byteOffset": 749440,
      "byteLength": 144,
      "target": 34963
    },
    {
      "buffer": 0,
      "byteOffset": 749584,
      "byteLength": 5052,
      "target": 34962,
      "byteStride": 12
    },
    {
      "buffer": 0,
      "byteOffset": 754636,
      "byteLength": 5052,
      "target": 34962,
      "byteStride": 12
    },
    {
      "buffer": 0,
      "byteOffset": 759688,
      "byteLength": 3368,
      "target": 34962,
      "byteStride": 8
    },
    {
      "buffer": 0,
      "byteOffset": 763056,
      "byteLength": 1296,
      "target": 34963
    },
    {
      "buffer": 0,
      "byteOffset": 764352,
      "byteLength": 6624,
      "target": 34962,
      "byteStride": 12
    },
    {
      "buffer": 0,
      "byteOffset": 770976,
      "byteLength": 6624,
      "target": 34962,
      "byteStride": 12
    },
    {
      "buffer": 0,
      "byteOffset": 777600,
      "byteLength": 4416,
      "target": 34962,
      "byteStride": 8
    },
    {
      "buffer": 0,
      "byteOffset": 782016,
      "byteLength": 5640,
      "target": 34963
    },
    {
      "buffer": 0,
      "byteOffset": 787656,
      "byteLength": 732,
      "target": 34962,
      "byteStride": 12
    },
    {
      "buffer": 0,
      "byteOffset": 788388,
      "byteLength": 732,
      "target": 34962,
      "byteStride": 12
    },
    {
      "buffer": 0,
      "byteOffset": 789120,
      "byteLength": 488,
      "target": 34962,
      "byteStride": 8
    },
    {
      "buffer": 0,
      "byteOffset": 789608,
      "byteLength": 216,
      "target": 34963
    },
    {
      "buffer": 0,
      "byteOffset": 789824,
      "byteLength": 6912,
      "target": 34962,
      "byteStride": 12
    },
    {
      "buffer": 0,
      "byteOffset": 796736,
      "byteLength": 6912,
      "target": 34962,
      "byteStride": 12
    },
    {
      "buffer": 0,
      "byteOffset": 803648,
      "byteLength": 4608,
      "target": 34962,
      "byteStride": 8
    },
    {
      "buffer": 0,
      "byteOffset": 808256,
      "byteLength": 1728,
      "target": 34963
    },
    {
      "buffer": 0,
      "byteOffset": 809984,
      "byteLength": 4320,
      "target": 34962,
      "byteStride": 12
    },
    {
      "buffer": 0,
      "byteOffset": 814304,
      "byteLength": 4320,
      "target": 34962,
      "byteStride": 12
    },
    {
      "buffer": 0,
      "byteOffset": 818624,
      "byteLength": 2880,
      "target": 34962,
      "byteStride": 8
    },
    {
      "buffer": 0,
      "byteOffset": 821504,
      "byteLength": 1080,
      "target": 34963
    },
    {
      "buffer": 0,
      "byteOffset": 822584,
      "byteLength": 2496,
      "target": 34962,
      "byteStride": 12
    },
    {
      "buffer": 0,
      "byteOffset": 825080,
      "byteLength": 2496,
      "target": 34962,
      "byteStride": 12
    },
    {
      "buffer": 0,
      "byteOffset": 827576,
      "byteLength": 1664,
      "target": 34962,
      "byteStride": 8
    },
    {
      "buffer": 0,
      "byteOffset": 829240,
      "byteLength": 1368,
      "target": 34963
    },
    {
      "buffer": 0,
      "byteOffset": 830608,
      "byteLength": 24672,
      "target": 34962,
      "byteStride": 12
    },
    {
      "buffer": 0,
      "byteOffset": 855280,
      "byteLength": 24672,
      "target": 34962,
      "byteStride": 12
    },
    {
      "buffer": 0,
      "byteOffset": 879952,
      "byteLength": 16448,
      "target": 34962,
      "byteStride": 8
    },
    {
      "buffer": 0,
      "byteOffset": 896400,
      "byteLength": 7848,
      "target": 34963
    },
    {
      "buffer": 0,
      "byteOffset": 904248,
      "byteLength": 31248,
      "target": 34962,
      "byteStride": 12
    },
    {
      "buffer": 0,
      "byteOffset": 935496,
      "byteLength": 31248,
      "target": 34962,
      "byteStride": 12
    },
    {
      "buffer": 0,
      "byteOffset": 966744,
      "byteLength": 20832,
      "target": 34962,
      "byteStride": 8
    },
    {
      "buffer": 0,
      "byteOffset": 987576,
      "byteLength": 18648,
      "target": 34963
    },
    {
      "buffer": 0,
      "byteOffset": 1006224,
      "byteLength": 52992,
      "target": 34962,
      "byteStride": 12
    },
    {
      "buffer": 0,
      "byteOffset": 1059216,
      "byteLength": 52992,
      "target": 34962,
      "byteStride": 12
    },
    {
      "buffer": 0,
      "byteOffset": 1112208,
      "byteLength": 35328,
      "target": 34962,
      "byteStride": 8
    },
    {
      "buffer": 0,
      "byteOffset": 1147536,
      "byteLength": 31104,
      "target": 34963
    },
    {
      "buffer": 0,
      "byteOffset": 1178640,
      "byteLength": 8532,
      "target": 34962,
      "byteStride": 12
    },
    {
      "buffer": 0,
      "byteOffset": 1187172,
      "byteLength": 8532,
      "target": 34962,
      "byteStride": 12
    },
    {
      "buffer": 0,
      "byteOffset": 1195704,
      "byteLength": 5688,
      "target": 34962,
      "byteStride": 8
    },
    {
      "buffer": 0,
      "byteOffset": 1201392,
      "byteLength": 6696,
      "target": 34963
    },
    {
      "buffer": 0,
      "byteOffset": 1208088,
      "byteLength": 396,
      "target": 34962,
      "byteStride": 12
    },
    {
      "buffer": 0,
      "byteOffset": 1208484,
      "byteLength": 396,
      "target": 34962,
      "byteStride": 12
    },
    {
      "buffer": 0,
      "byteOffset": 1208880,
      "byteLength": 264,
      "target": 34962,
      "byteStride": 8
    },
    {
      "buffer": 0,
      "byteOffset": 1209144,
      "byteLength": 192,
      "target": 34963
    },
    {
      "buffer": 0,
      "byteOffset": 1209336,
      "byteLength": 2544,
      "target": 34962,
      "byteStride": 12
    },
    {
      "buffer": 0,
      "byteOffset": 1211880,
      "byteLength": 2544,
      "target": 34962,
      "byteStride": 12
    },
    {
      "buffer": 0,
      "byteOffset": 1214424,
      "byteLength": 1696,
      "target": 34962,
      "byteStride": 8
    },
    {
      "buffer": 0,
      "byteOffset": 1216120,
      "byteLength": 1800,
      "target": 34963
    },
    {
      "buffer": 0,
      "byteOffset": 1217920,
      "byteLength": 1200,
      "target": 34962,
      "byteStride": 12
    },
    {
      "buffer": 0,
      "byteOffset": 1219120,
      "byteLength": 1200,
      "target": 34962,
      "byteStride": 12
    },
    {
      "buffer": 0,
      "byteOffset": 1220320,
      "byteLength": 800,
      "target": 34962,
      "byteStride": 8
    },
    {
      "buffer": 0,
      "byteOffset": 1221120,
      "byteLength": 576,
      "target": 34963
    },
    {
      "buffer": 0,
      "byteOffset": 1221696,
      "byteLength": 3696,
      "target": 34962,
      "byteStride": 12
    },
    {
      "buffer": 0,
      "byteOffset": 1225392,
      "byteLength": 3696,
      "target": 34962,
      "byteStride": 12
    },
    {
      "buffer": 0,
      "byteOffset": 1229088,
      "byteLength": 2464,
      "target": 34962,
      "byteStride": 8
    },
    {
      "buffer": 0,
      "byteOffset": 1231552,
      "byteLength": 2088,
      "target": 34963
    },
    {
      "buffer": 0,
      "byteOffset": 1233640,
      "byteLength": 4512,
      "target": 34962,
      "byteStride": 12
    },
    {
      "buffer": 0,
      "byteOffset": 1238152,
      "byteLength": 4512,
      "target": 34962,
      "byteStride": 12
    },
    {
      "buffer": 0,
      "byteOffset": 1242664,
      "byteLength": 3008,
      "target": 34962,
      "byteStride": 8
    },
    {
      "buffer": 0,
      "byteOffset": 1245672,
      "byteLength": 3600,
      "target": 34963
    }
  ],
  "buffers": [
    {
      "byteLength": 1249272,
      "uri": "studio.bin"
    }
  ],
  "accessors": [
    {
      "bufferView": 0,
      "componentType": 5126,
      "count": 212,
      "max": [
        3.575000047683716,
        -1.7881393032936899e-9,
        1.524999976158142
      ],
      "min": [
        -3.575000047683716,
        -0.1599999964237213,
        -1.524999976158142
      ],
      "type": "VEC3"
    },
    {
      "bufferView": 1,
      "componentType": 5126,
      "count": 212,
      "max": [
        1,
        1,
        1
      ],
      "min": [
        -1,
        -1,
        -1
      ],
      "type": "VEC3"
    },
    {
      "bufferView": 2,
      "componentType": 5126,
      "count": 212,
      "max": [
        1,
        1
      ],
      "min": [
        0,
        0
      ],
      "type": "VEC2"
    },
    {
      "bufferView": 3,
      "componentType": 5123,
      "count": 900,
      "max": [
        211
      ],
      "min": [
        0
      ],
      "type": "SCALAR"
    },
    {
      "bufferView": 4,
      "componentType": 5126,
      "count": 212,
      "max": [
        3.509999990463257,
        -0.14749999344348907,
        1.4700000286102295
      ],
      "min": [
        -3.509999990463257,
        -0.20250000059604645,
        -1.4700000286102295
      ],
      "type": "VEC3"
    },
    {
      "bufferView": 5,
      "componentType": 5126,
      "count": 212,
      "max": [
        1,
        1,
        1
      ],
      "min": [
        -1,
        -1,
        -1
      ],
      "type": "VEC3"
    },
    {
      "bufferView": 6,
      "componentType": 5126,
      "count": 212,
      "max": [
        1,
        1
      ],
      "min": [
        0,
        0
      ],
      "type": "VEC2"
    },
    {
      "bufferView": 7,
      "componentType": 5123,
      "count": 900,
      "max": [
        211
      ],
      "min": [
        0
      ],
      "type": "SCALAR"
    },
    {
      "bufferView": 8,
      "componentType": 5126,
      "count": 188,
      "max": [
        3.054999828338623,
        0.02850000001490116,
        1.3300000429153442
      ],
      "min": [
        -2.815000057220459,
        0.005499999970197678,
        -0.9100000262260437
      ],
      "type": "VEC3"
    },
    {
      "bufferView": 9,
      "componentType": 5126,
      "count": 188,
      "max": [
        1,
        1,
        1
      ],
      "min": [
        -1,
        -1,
        -1
      ],
      "type": "VEC3"
    },
    {
      "bufferView": 10,
      "componentType": 5126,
      "count": 188,
      "max": [
        1,
        1
      ],
      "min": [
        0,
        0
      ],
      "type": "VEC2"
    },
    {
      "bufferView": 11,
      "componentType": 5123,
      "count": 900,
      "max": [
        187
      ],
      "min": [
        0
      ],
      "type": "SCALAR"
    },
    {
      "bufferView": 12,
      "componentType": 5126,
      "count": 408,
      "max": [
        3.4697182178497314,
        0.0017500000540167093,
        1.343000054359436
      ],
      "min": [
        -3.4699997901916504,
        0.00024999998277053237,
        -1.4630000591278076
      ],
      "type": "VEC3"
    },
    {
      "bufferView": 13,
      "componentType": 5126,
      "count": 408,
      "max": [
        1,
        1,
        1
      ],
      "min": [
        -1,
        -1,
        -1
      ],
      "type": "VEC3"
    },
    {
      "bufferView": 14,
      "componentType": 5126,
      "count": 408,
      "max": [
        1,
        1
      ],
      "min": [
        0,
        0
      ],
      "type": "VEC2"
    },
    {
      "bufferView": 15,
      "componentType": 5123,
      "count": 612,
      "max": [
        407
      ],
      "min": [
        0
      ],
      "type": "SCALAR"
    },
    {
      "bufferView": 16,
      "componentType": 5126,
      "count": 9825,
      "max": [
        3.36299991607666,
        2.6414999961853027,
        1.434999942779541
      ],
      "min": [
        -2.9867851734161377,
        -0.3700000047683716,
        -1.0473253726959229
      ],
      "type": "VEC3"
    },
    {
      "bufferView": 17,
      "componentType": 5126,
      "count": 9825,
      "max": [
        1,
        1,
        1
      ],
      "min": [
        -1,
        -1,
        -1
      ],
      "type": "VEC3"
    },
    {
      "bufferView": 18,
      "componentType": 5126,
      "count": 9825,
      "max": [
        1,
        1
      ],
      "min": [
        -2.220446049250313e-16,
        -2.220446049250313e-16
      ],
      "type": "VEC2"
    },
    {
      "bufferView": 19,
      "componentType": 5123,
      "count": 36348,
      "max": [
        9824
      ],
      "min": [
        0
      ],
      "type": "SCALAR"
    },
    {
      "bufferView": 20,
      "componentType": 5126,
      "count": 3817,
      "max": [
        3.302500009536743,
        2.426872968673706,
        1.3162347078323364
      ],
      "min": [
        -2.865000009536743,
        -0.4950000047683716,
        -1.17630934715271
      ],
      "type": "VEC3"
    },
    {
      "bufferView": 21,
      "componentType": 5126,
      "count": 3817,
      "max": [
        1,
        1,
        1
      ],
      "min": [
        -1,
        -1,
        -1
      ],
      "type": "VEC3"
    },
    {
      "bufferView": 22,
      "componentType": 5126,
      "count": 3817,
      "max": [
        1,
        1
      ],
      "min": [
        0,
        0
      ],
      "type": "VEC2"
    },
    {
      "bufferView": 23,
      "componentType": 5123,
      "count": 16236,
      "max": [
        3816
      ],
      "min": [
        0
      ],
      "type": "SCALAR"
    },
    {
      "bufferView": 24,
      "componentType": 5126,
      "count": 8,
      "max": [
        2.7988171577453613,
        2.6040000915527344,
        -0.7125452160835266
      ],
      "min": [
        -2.9099764823913574,
        0.9639999866485596,
        -0.9859955906867981
      ],
      "type": "VEC3"
    },
    {
      "bufferView": 25,
      "componentType": 5126,
      "count": 8,
      "max": [
        0.07991469651460648,
        0,
        0.9984878897666931
      ],
      "min": [
        -0.05497227609157562,
        0,
        0.9968017339706421
      ],
      "type": "VEC3"
    },
    {
      "bufferView": 26,
      "componentType": 5126,
      "count": 8,
      "max": [
        1,
        1
      ],
      "min": [
        0,
        0
      ],
      "type": "VEC2"
    },
    {
      "bufferView": 27,
      "componentType": 5123,
      "count": 12,
      "max": [
        7
      ],
      "min": [
        0
      ],
      "type": "SCALAR"
    },
    {
      "bufferView": 28,
      "componentType": 5126,
      "count": 72,
      "max": [
        3.200000047683716,
        0.9430000185966492,
        -0.8195876479148865
      ],
      "min": [
        -3.200000047683716,
        -0.05400000140070915,
        -1.527999997138977
      ],
      "type": "VEC3"
    },
    {
      "bufferView": 29,
      "componentType": 5126,
      "count": 72,
      "max": [
        1,
        1,
        1
      ],
      "min": [
        -1,
        -1,
        -1
      ],
      "type": "VEC3"
    },
    {
      "bufferView": 30,
      "componentType": 5126,
      "count": 72,
      "max": [
        1,
        1
      ],
      "min": [
        0,
        0
      ],
      "type": "VEC2"
    },
    {
      "bufferView": 31,
      "componentType": 5123,
      "count": 108,
      "max": [
        71
      ],
      "min": [
        0
      ],
      "type": "SCALAR"
    },
    {
      "bufferView": 32,
      "componentType": 5126,
      "count": 1024,
      "max": [
        3.3062853813171387,
        2.3459999561309814,
        0.6873373985290527
      ],
      "min": [
        -1.5127166509628296,
        0.0010391760151833296,
        -1.175736665725708
      ],
      "type": "VEC3"
    },
    {
      "bufferView": 33,
      "componentType": 5126,
      "count": 1024,
      "max": [
        0.9981806874275208,
        1,
        0.9993306398391724
      ],
      "min": [
        -0.9981806874275208,
        -1,
        -0.9993306398391724
      ],
      "type": "VEC3"
    },
    {
      "bufferView": 34,
      "componentType": 5126,
      "count": 1024,
      "max": [
        1,
        1
      ],
      "min": [
        0,
        0
      ],
      "type": "VEC2"
    },
    {
      "bufferView": 35,
      "componentType": 5123,
      "count": 4896,
      "max": [
        1023
      ],
      "min": [
        0
      ],
      "type": "SCALAR"
    },
    {
      "bufferView": 36,
      "componentType": 5126,
      "count": 2786,
      "max": [
        3.36299991607666,
        2.6549999713897705,
        1.2949999570846558
      ],
      "min": [
        -1.9449999332427979,
        -0.03500001132488251,
        -1.1107336282730103
      ],
      "type": "VEC3"
    },
    {
      "bufferView": 37,
      "componentType": 5126,
      "count": 2786,
      "max": [
        1,
        1,
        1
      ],
      "min": [
        -1,
        -1,
        -1
      ],
      "type": "VEC3"
    },
    {
      "bufferView": 38,
      "componentType": 5126,
      "count": 2786,
      "max": [
        1,
        1
      ],
      "min": [
        0,
        0
      ],
      "type": "VEC2"
    },
    {
      "bufferView": 39,
      "componentType": 5123,
      "count": 12300,
      "max": [
        2785
      ],
      "min": [
        0
      ],
      "type": "SCALAR"
    },
    {
      "bufferView": 40,
      "componentType": 5126,
      "count": 188,
      "max": [
        0.7549999952316284,
        1.0914393663406372,
        -0.17737051844596863
      ],
      "min": [
        -0.7549999952316284,
        0.23714111745357513,
        -0.311521053314209
      ],
      "type": "VEC3"
    },
    {
      "bufferView": 41,
      "componentType": 5126,
      "count": 188,
      "max": [
        1,
        0.9887710809707642,
        0.9887710809707642
      ],
      "min": [
        -1,
        -0.9887710809707642,
        -0.9887710809707642
      ],
      "type": "VEC3"
    },
    {
      "bufferView": 42,
      "componentType": 5126,
      "count": 188,
      "max": [
        1,
        1
      ],
      "min": [
        0,
        0
      ],
      "type": "VEC2"
    },
    {
      "bufferView": 43,
      "componentType": 5123,
      "count": 900,
      "max": [
        187
      ],
      "min": [
        0
      ],
      "type": "SCALAR"
    },
    {
      "bufferView": 44,
      "componentType": 5126,
      "count": 48,
      "max": [
        0.7450000047683716,
        1.0876163244247437,
        -0.17884127795696259
      ],
      "min": [
        -0.7450000047683716,
        0.2732599377632141,
        -0.3038063943386078
      ],
      "type": "VEC3"
    },
    {
      "bufferView": 45,
      "componentType": 5126,
      "count": 48,
      "max": [
        1,
        0.9887710809707642,
        0.9887710809707642
      ],
      "min": [
        -1,
        -0.9887710809707642,
        -0.9887710809707642
      ],
      "type": "VEC3"
    },
    {
      "bufferView": 46,
      "componentType": 5126,
      "count": 48,
      "max": [
        1,
        1
      ],
      "min": [
        0,
        0
      ],
      "type": "VEC2"
    },
    {
      "bufferView": 47,
      "componentType": 5123,
      "count": 72,
      "max": [
        47
      ],
      "min": [
        0
      ],
      "type": "SCALAR"
    },
    {
      "bufferView": 48,
      "componentType": 5126,
      "count": 421,
      "max": [
        0.7400000095367432,
        1.0739976167678833,
        -0.1728176772594452
      ],
      "min": [
        -0.7400000095367432,
        0.23689955472946167,
        -0.29726478457450867
      ],
      "type": "VEC3"
    },
    {
      "bufferView": 49,
      "componentType": 5126,
      "count": 421,
      "max": [
        1,
        0.9887710809707642,
        0.9887710809707642
      ],
      "min": [
        -1,
        -0.9887710809707642,
        -0.9887710809707642
      ],
      "type": "VEC3"
    },
    {
      "bufferView": 50,
      "componentType": 5126,
      "count": 421,
      "max": [
        1,
        1
      ],
      "min": [
        0,
        0
      ],
      "type": "VEC2"
    },
    {
      "bufferView": 51,
      "componentType": 5123,
      "count": 648,
      "max": [
        420
      ],
      "min": [
        0
      ],
      "type": "SCALAR"
    },
    {
      "bufferView": 52,
      "componentType": 5126,
      "count": 552,
      "max": [
        2.4800000190734863,
        1.0739976167678833,
        0.9280000329017639
      ],
      "min": [
        -0.671999990940094,
        0.03500000014901161,
        -0.29726478457450867
      ],
      "type": "VEC3"
    },
    {
      "bufferView": 53,
      "componentType": 5126,
      "count": 552,
      "max": [
        1,
        1,
        1
      ],
      "min": [
        -1,
        -1,
        -1
      ],
      "type": "VEC3"
    },
    {
      "bufferView": 54,
      "componentType": 5126,
      "count": 552,
      "max": [
        1,
        1
      ],
      "min": [
        0,
        0
      ],
      "type": "VEC2"
    },
    {
      "bufferView": 55,
      "componentType": 5123,
      "count": 2820,
      "max": [
        551
      ],
      "min": [
        0
      ],
      "type": "SCALAR"
    },
    {
      "bufferView": 56,
      "componentType": 5126,
      "count": 61,
      "max": [
        1.1080000400543213,
        1.0739976167678833,
        -0.09399999678134918
      ],
      "min": [
        -0.6340000033378601,
        0.07249999791383743,
        -0.29726478457450867
      ],
      "type": "VEC3"
    },
    {
      "bufferView": 57,
      "componentType": 5126,
      "count": 61,
      "max": [
        1,
        1,
        1
      ],
      "min": [
        -1,
        -1,
        -1
      ],
      "type": "VEC3"
    },
    {
      "bufferView": 58,
      "componentType": 5126,
      "count": 61,
      "max": [
        1,
        1
      ],
      "min": [
        0,
        0
      ],
      "type": "VEC2"
    },
    {
      "bufferView": 59,
      "componentType": 5123,
      "count": 108,
      "max": [
        60
      ],
      "min": [
        0
      ],
      "type": "SCALAR"
    },
    {
      "bufferView": 60,
      "componentType": 5126,
      "count": 576,
      "max": [
        -0.32199999690055847,
        0.9915846586227417,
        -0.18845641613006592
      ],
      "min": [
        -0.6920000314712524,
        0.3604498505592346,
        -0.28577548265457153
      ],
      "type": "VEC3"
    },
    {
      "bufferView": 61,
      "componentType": 5126,
      "count": 576,
      "max": [
        1,
        0.9887710809707642,
        0.9887710809707642
      ],
      "min": [
        -1,
        -0.9887710809707642,
        -0.9887710809707642
      ],
      "type": "VEC3"
    },
    {
      "bufferView": 62,
      "componentType": 5126,
      "count": 576,
      "max": [
        1,
        1
      ],
      "min": [
        0,
        0
      ],
      "type": "VEC2"
    },
    {
      "bufferView": 63,
      "componentType": 5123,
      "count": 864,
      "max": [
        575
      ],
      "min": [
        0
      ],
      "type": "SCALAR"
    },
    {
      "bufferView": 64,
      "componentType": 5126,
      "count": 360,
      "max": [
        0.17499999701976776,
        0.9925734400749207,
        -0.18845641613006592
      ],
      "min": [
        -0.3100000023841858,
        0.3604498505592346,
        -0.28592491149902344
      ],
      "type": "VEC3"
    },
    {
      "bufferView": 65,
      "componentType": 5126,
      "count": 360,
      "max": [
        1,
        0.9887710809707642,
        0.9887710809707642
      ],
      "min": [
        -1,
        -0.9887710809707642,
        -0.9887710809707642
      ],
      "type": "VEC3"
    },
    {
      "bufferView": 66,
      "componentType": 5126,
      "count": 360,
      "max": [
        1,
        1
      ],
      "min": [
        0,
        0
      ],
      "type": "VEC2"
    },
    {
      "bufferView": 67,
      "componentType": 5123,
      "count": 540,
      "max": [
        359
      ],
      "min": [
        0
      ],
      "type": "SCALAR"
    },
    {
      "bufferView": 68,
      "componentType": 5126,
      "count": 208,
      "max": [
        0.9020000100135803,
        0.24505983293056488,
        1.3015042543411255
      ],
      "min": [
        -3.141476631164551,
        0.042500000447034836,
        0.37971851229667664
      ],
      "type": "VEC3"
    },
    {
      "bufferView": 69,
      "componentType": 5126,
      "count": 208,
      "max": [
        1,
        1,
        0.9993875622749329
      ],
      "min": [
        -1,
        -1,
        -0.9993875622749329
      ],
      "type": "VEC3"
    },
    {
      "bufferView": 70,
      "componentType": 5126,
      "count": 208,
      "max": [
        1,
        1
      ],
      "min": [
        0,
        0
      ],
      "type": "VEC2"
    },
    {
      "bufferView": 71,
      "componentType": 5123,
      "count": 684,
      "max": [
        207
      ],
      "min": [
        0
      ],
      "type": "SCALAR"
    },
    {
      "bufferView": 72,
      "componentType": 5126,
      "count": 2056,
      "max": [
        2.4609999656677246,
        0.2615000009536743,
        1.4450000524520874
      ],
      "min": [
        -0.828499972820282,
        -0.21799999475479126,
        -0.06350000202655792
      ],
      "type": "VEC3"
    },
    {
      "bufferView": 73,
      "componentType": 5126,
      "count": 2056,
      "max": [
        1,
        1,
        1
      ],
      "min": [
        -1,
        -1,
        -1
      ],
      "type": "VEC3"
    },
    {
      "bufferView": 74,
      "componentType": 5126,
      "count": 2056,
      "max": [
        1,
        1
      ],
      "min": [
        0,
        0
      ],
      "type": "VEC2"
    },
    {
      "bufferView": 75,
      "componentType": 5123,
      "count": 3924,
      "max": [
        2055
      ],
      "min": [
        0
      ],
      "type": "SCALAR"
    },
    {
      "bufferView": 76,
      "componentType": 5126,
      "count": 2604,
      "max": [
        0.9269999861717224,
        0.2494780570268631,
        1.2677392959594727
      ],
      "min": [
        -0.847000002861023,
        0.1666834056377411,
        0.6889734864234924
      ],
      "type": "VEC3"
    },
    {
      "bufferView": 77,
      "componentType": 5126,
      "count": 2604,
      "max": [
        1,
        0.9993875622749329,
        0.9993875622749329
      ],
      "min": [
        -1,
        -0.9993875622749329,
        -0.9993875622749329
      ],
      "type": "VEC3"
    },
    {
      "bufferView": 78,
      "componentType": 5126,
      "count": 2604,
      "max": [
        1,
        1
      ],
      "min": [
        0,
        0
      ],
      "type": "VEC2"
    },
    {
      "bufferView": 79,
      "componentType": 5123,
      "count": 9324,
      "max": [
        2603
      ],
      "min": [
        0
      ],
      "type": "SCALAR"
    },
    {
      "bufferView": 80,
      "componentType": 5126,
      "count": 4416,
      "max": [
        0.6890000104904175,
        0.24396392703056335,
        1.2677392959594727
      ],
      "min": [
        -0.7279999852180481,
        0.170847550034523,
        0.807900607585907
      ],
      "type": "VEC3"
    },
    {
      "bufferView": 81,
      "componentType": 5126,
      "count": 4416,
      "max": [
        1,
        0.9993875622749329,
        0.9993875622749329
      ],
      "min": [
        -1,
        -0.9993875622749329,
        -0.9993875622749329
      ],
      "type": "VEC3"
    },
    {
      "bufferView": 82,
      "componentType": 5126,
      "count": 4416,
      "max": [
        1,
        1
      ],
      "min": [
        0,
        0
      ],
      "type": "VEC2"
    },
    {
      "bufferView": 83,
      "componentType": 5123,
      "count": 15552,
      "max": [
        4415
      ],
      "min": [
        0
      ],
      "type": "SCALAR"
    },
    {
      "bufferView": 84,
      "componentType": 5126,
      "count": 711,
      "max": [
        1.5507724285125732,
        0.4039999842643738,
        1.2799999713897705
      ],
      "min": [
        -1.9299999475479126,
        0.004999999888241291,
        -0.38850000500679016
      ],
      "type": "VEC3"
    },
    {
      "bufferView": 85,
      "componentType": 5126,
      "count": 711,
      "max": [
        1,
        1,
        1
      ],
      "min": [
        -1,
        -1,
        -1
      ],
      "type": "VEC3"
    },
    {
      "bufferView": 86,
      "componentType": 5126,
      "count": 711,
      "max": [
        1,
        1
      ],
      "min": [
        0,
        0
      ],
      "type": "VEC2"
    },
    {
      "bufferView": 87,
      "componentType": 5123,
      "count": 3348,
      "max": [
        710
      ],
      "min": [
        0
      ],
      "type": "SCALAR"
    },
    {
      "bufferView": 88,
      "componentType": 5126,
      "count": 33,
      "max": [
        2.2869999408721924,
        0.43700000643730164,
        0.8870000243186951
      ],
      "min": [
        1.9529999494552612,
        0.43700000643730164,
        0.5530000329017639
      ],
      "type": "VEC3"
    },
    {
      "bufferView": 89,
      "componentType": 5126,
      "count": 33,
      "max": [
        0,
        1,
        2.220446049250313e-16
      ],
      "min": [
        0,
        1,
        2.220446049250313e-16
      ],
      "type": "VEC3"
    },
    {
      "bufferView": 90,
      "componentType": 5126,
      "count": 33,
      "max": [
        1,
        1
      ],
      "min": [
        0,
        0
      ],
      "type": "VEC2"
    },
    {
      "bufferView": 91,
      "componentType": 5123,
      "count": 96,
      "max": [
        32
      ],
      "min": [
        0
      ],
      "type": "SCALAR"
    },
    {
      "bufferView": 92,
      "componentType": 5126,
      "count": 212,
      "max": [
        1.3849999904632568,
        0.3149999976158142,
        -0.14499999582767487
      ],
      "min": [
        0.6150000095367432,
        0.1850000023841858,
        -0.574999988079071
      ],
      "type": "VEC3"
    },
    {
      "bufferView": 93,
      "componentType": 5126,
      "count": 212,
      "max": [
        1,
        1,
        1
      ],
      "min": [
        -1,
        -1,
        -1
      ],
      "type": "VEC3"
    },
    {
      "bufferView": 94,
      "componentType": 5126,
      "count": 212,
      "max": [
        1,
        1
      ],
      "min": [
        0,
        0
      ],
      "type": "VEC2"
    },
    {
      "bufferView": 95,
      "componentType": 5123,
      "count": 900,
      "max": [
        211
      ],
      "min": [
        0
      ],
      "type": "SCALAR"
    },
    {
      "bufferView": 96,
      "componentType": 5126,
      "count": 100,
      "max": [
        3.1056530475616455,
        2.439262628555298,
        -0.060999996960163116
      ],
      "min": [
        2.897510051727295,
        2.178297996520996,
        -0.21899999678134918
      ],
      "type": "VEC3"
    },
    {
      "bufferView": 97,
      "componentType": 5126,
      "count": 100,
      "max": [
        0.9713379740715027,
        0.9713379740715027,
        1
      ],
      "min": [
        -0.9713379740715027,
        -0.9713379740715027,
        -1
      ],
      "type": "VEC3"
    },
    {
      "bufferView": 98,
      "componentType": 5126,
      "count": 100,
      "max": [
        1,
        1
      ],
      "min": [
        0,
        0
      ],
      "type": "VEC2"
    },
    {
      "bufferView": 99,
      "componentType": 5123,
      "count": 288,
      "max": [
        99
      ],
      "min": [
        0
      ],
      "type": "SCALAR"
    },
    {
      "bufferView": 100,
      "componentType": 5126,
      "count": 308,
      "max": [
        -2.383413076400757,
        0.1340000033378601,
        1.3807731866836548
      ],
      "min": [
        -3.116586923599243,
        0.0494999997317791,
        0.3992268145084381
      ],
      "type": "VEC3"
    },
    {
      "bufferView": 101,
      "componentType": 5126,
      "count": 308,
      "max": [
        0.9872272610664368,
        1,
        0.9872272610664368
      ],
      "min": [
        -0.9872272610664368,
        -1,
        -0.9872272610664368
      ],
      "type": "VEC3"
    },
    {
      "bufferView": 102,
      "componentType": 5126,
      "count": 308,
      "max": [
        1,
        1
      ],
      "min": [
        0,
        -2.220446049250313e-16
      ],
      "type": "VEC2"
    },
    {
      "bufferView": 103,
      "componentType": 5123,
      "count": 1044,
      "max": [
        307
      ],
      "min": [
        0
      ],
      "type": "SCALAR"
    },
    {
      "bufferView": 104,
      "componentType": 5126,
      "count": 376,
      "max": [
        -2.361039876937866,
        0.1315000057220459,
        1.399006962776184
      ],
      "min": [
        -3.138960123062134,
        0.03750000149011612,
        0.3809930682182312
      ],
      "type": "VEC3"
    },
    {
      "bufferView": 105,
      "componentType": 5126,
      "count": 376,
      "max": [
        0.9872272610664368,
        1,
        0.9872272610664368
      ],
      "min": [
        -0.9872272610664368,
        -1,
        -0.9872272610664368
      ],
      "type": "VEC3"
    },
    {
      "bufferView": 106,
      "componentType": 5126,
      "count": 376,
      "max": [
        1,
        1
      ],
      "min": [
        0,
        0
      ],
      "type": "VEC2"
    },
    {
      "bufferView": 107,
      "componentType": 5123,
      "count": 1800,
      "max": [
        375
      ],
      "min": [
        0
      ],
      "type": "SCALAR"
    }
  ],
  "materials": [
    {
      "pbrMetallicRoughness": {
        "baseColorFactor": [
          0.14126329113044458,
          0.05286064701616471,
          0.02217388478862708,
          1
        ],
        "metallicFactor": 0,
        "roughnessFactor": 0.48
      },
      "name": "Warm walnut desktop"
    },
    {
      "pbrMetallicRoughness": {
        "baseColorFactor": [
          0.054480276435339814,
          0.024157632443547246,
          0.014443843592229466,
          1
        ],
        "metallicFactor": 0,
        "roughnessFactor": 0.56
      },
      "name": "Walnut end grain"
    },
    {
      "pbrMetallicRoughness": {
        "baseColorFactor": [
          0.38642943377667954,
          0.20507873637973145,
          0.07421356837213867,
          1
        ],
        "metallicFactor": 0,
        "roughnessFactor": 0.92
      },
      "name": "Cognac desk mat"
    },
    {
      "pbrMetallicRoughness": {
        "baseColorFactor": [
          0.09084171117479915,
          0.036889450395083165,
          0.015996293361446288,
          1
        ],
        "metallicFactor": 0,
        "roughnessFactor": 0.7
      },
      "name": "Fine wood grain"
    },
    {
      "pbrMetallicRoughness": {
        "baseColorFactor": [
          0.005605391621829108,
          0.006512090790025684,
          0.008023192982520563,
          1
        ],
        "metallicFactor": 0,
        "roughnessFactor": 0.57
      },
      "name": "Soft black polymer"
    },
    {
      "pbrMetallicRoughness": {
        "baseColorFactor": [
          0.01764195448412081,
          0.02028856305209031,
          0.024157632443547246,
          1
        ],
        "metallicFactor": 0.65,
        "roughnessFactor": 0.34
      },
      "name": "Anodized graphite"
    },
    {
      "pbrMetallicRoughness": {
        "metallicFactor": 0,
        "roughnessFactor": 0.9,
        "baseColorTexture": {
          "index": 0
        }
      },
      "name": "Manhattan wallpaper",
      "extensions": {
        "KHR_materials_unlit": {}
      }
    },
    {
      "pbrMetallicRoughness": {
        "baseColorFactor": [
          1,
          0.2501582847191642,
          0.059511238155621766,
          1
        ],
        "metallicFactor": 0,
        "roughnessFactor": 0.9
      },
      "name": "Warm status LEDs",
      "extensions": {
        "KHR_materials_unlit": {}
      }
    },
    {
      "pbrMetallicRoughness": {
        "baseColorFactor": [
          0.0033465357620980074,
          0.004024717016506897,
          0.004391442035325718,
          1
        ],
        "metallicFactor": 0,
        "roughnessFactor": 0.86
      },
      "name": "Rubber cable and cushions"
    },
    {
      "pbrMetallicRoughness": {
        "baseColorFactor": [
          0.4232676699760063,
          0.45641102317066595,
          0.4793201830913402,
          1
        ],
        "metallicFactor": 0.78,
        "roughnessFactor": 0.28
      },
      "name": "Brushed silver aluminum"
    },
    {
      "pbrMetallicRoughness": {
        "baseColorFactor": [
          0.004391442035325718,
          0.008023192982520563,
          0.012983032338510335,
          1
        ],
        "metallicFactor": 0,
        "roughnessFactor": 0.24
      },
      "name": "Laptop display glass"
    },
    {
      "pbrMetallicRoughness": {
        "baseColorFactor": [
          0.011612245176281512,
          0.019382360952473074,
          0.030713443727452196,
          1
        ],
        "metallicFactor": 0,
        "roughnessFactor": 0.9
      },
      "name": "Editor panels",
      "extensions": {
        "KHR_materials_unlit": {}
      }
    },
    {
      "pbrMetallicRoughness": {
        "baseColorFactor": [
          0.8879231178794776,
          0.3049873140591091,
          0.09305896283800832,
          1
        ],
        "metallicFactor": 0,
        "roughnessFactor": 0.9
      },
      "name": "Editor syntax orange",
      "extensions": {
        "KHR_materials_unlit": {}
      }
    },
    {
      "pbrMetallicRoughness": {
        "baseColorFactor": [
          0.6795424696265424,
          0.55201140150344,
          0.28314874041918053,
          1
        ],
        "metallicFactor": 0,
        "roughnessFactor": 0.25
      },
      "name": "Cream ceramic"
    },
    {
      "pbrMetallicRoughness": {
        "baseColorFactor": [
          0.3515325994898463,
          0.5583403896257968,
          0.3231432091022285,
          1
        ],
        "metallicFactor": 0,
        "roughnessFactor": 0.9
      },
      "name": "Audio meter green",
      "extensions": {
        "KHR_materials_unlit": {}
      }
    },
    {
      "pbrMetallicRoughness": {
        "baseColorFactor": [
          0.158960835050774,
          0.34670405634441115,
          0.4452011945063733,
          1
        ],
        "metallicFactor": 0,
        "roughnessFactor": 0.9
      },
      "name": "Editor syntax blue",
      "extensions": {
        "KHR_materials_unlit": {}
      }
    },
    {
      "pbrMetallicRoughness": {
        "baseColorFactor": [
          0.3712376804636741,
          0.4910208498384856,
          0.5711248294565854,
          1
        ],
        "metallicFactor": 0,
        "roughnessFactor": 0.9
      },
      "name": "Editor text",
      "extensions": {
        "KHR_materials_unlit": {}
      }
    },
    {
      "pbrMetallicRoughness": {
        "baseColorFactor": [
          0.9046611743890203,
          0.07618538147321911,
          0,
          1
        ],
        "metallicFactor": 0.18,
        "roughnessFactor": 0.36
      },
      "name": "Signature orange accent"
    },
    {
      "pbrMetallicRoughness": {
        "baseColorFactor": [
          0.5711248294565854,
          0.6307571363387763,
          0.6172065624120635,
          1
        ],
        "metallicFactor": 0,
        "roughnessFactor": 0.75
      },
      "name": "Key legends"
    },
    {
      "pbrMetallicRoughness": {
        "baseColorFactor": [
          0.08021982030622662,
          0.09758734713304495,
          0.10224173307914941,
          1
        ],
        "metallicFactor": 0,
        "roughnessFactor": 0.64
      },
      "name": "Slate keycaps"
    },
    {
      "pbrMetallicRoughness": {
        "baseColorFactor": [
          0.33245153633549385,
          0.4019777798219466,
          0.3967552307153359,
          1
        ],
        "metallicFactor": 0,
        "roughnessFactor": 0.62
      },
      "name": "Light gray keycaps"
    },
    {
      "pbrMetallicRoughness": {
        "baseColorFactor": [
          0.6938717612856897,
          0.7011018919268015,
          0.6514056374127929,
          1
        ],
        "metallicFactor": 0,
        "roughnessFactor": 0.32
      },
      "name": "Warm white accessories"
    },
    {
      "pbrMetallicRoughness": {
        "baseColorFactor": [
          0.010960094003125918,
          0.005181516700061659,
          0.0033465357620980074,
          1
        ],
        "metallicFactor": 0,
        "roughnessFactor": 0.2
      },
      "name": "Coffee"
    },
    {
      "pbrMetallicRoughness": {
        "baseColorFactor": [
          0.23839757380151394,
          0.02217388478862708,
          0.012286488353353374,
          1
        ],
        "metallicFactor": 0.65,
        "roughnessFactor": 0.36
      },
      "name": "Audio interface red aluminum"
    },
    {
      "pbrMetallicRoughness": {
        "baseColorFactor": [
          0.23455058215026167,
          0.2501582847191642,
          0.25818285291079235,
          1
        ],
        "metallicFactor": 0.72,
        "roughnessFactor": 0.43
      },
      "name": "Microphone steel grille"
    },
    {
      "pbrMetallicRoughness": {
        "baseColorFactor": [
          0.7835377915215659,
          0.7230551289161951,
          0.5583403896257968,
          1
        ],
        "metallicFactor": 0,
        "roughnessFactor": 0.85
      },
      "name": "Book pages"
    },
    {
      "pbrMetallicRoughness": {
        "baseColorFactor": [
          0.015208514418949472,
          0.08228270712149792,
          0.08650046202808521,
          1
        ],
        "metallicFactor": 0,
        "roughnessFactor": 0.78
      },
      "name": "Book jacket"
    }
  ],
  "meshes": [
    {
      "primitives": [
        {
          "mode": 4,
          "attributes": {
            "POSITION": 0,
            "NORMAL": 1,
            "TEXCOORD_0": 2
          },
          "indices": 3,
          "material": 0
        }
      ]
    },
    {
      "primitives": [
        {
          "mode": 4,
          "attributes": {
            "POSITION": 4,
            "NORMAL": 5,
            "TEXCOORD_0": 6
          },
          "indices": 7,
          "material": 1
        }
      ]
    },
    {
      "primitives": [
        {
          "mode": 4,
          "attributes": {
            "POSITION": 8,
            "NORMAL": 9,
            "TEXCOORD_0": 10
          },
          "indices": 11,
          "material": 2
        }
      ]
    },
    {
      "primitives": [
        {
          "mode": 4,
          "attributes": {
            "POSITION": 12,
            "NORMAL": 13,
            "TEXCOORD_0": 14
          },
          "indices": 15,
          "material": 3
        }
      ]
    },
    {
      "primitives": [
        {
          "mode": 4,
          "attributes": {
            "POSITION": 16,
            "NORMAL": 17,
            "TEXCOORD_0": 18
          },
          "indices": 19,
          "material": 4
        }
      ]
    },
    {
      "primitives": [
        {
          "mode": 4,
          "attributes": {
            "POSITION": 20,
            "NORMAL": 21,
            "TEXCOORD_0": 22
          },
          "indices": 23,
          "material": 5
        }
      ]
    },
    {
      "primitives": [
        {
          "mode": 4,
          "attributes": {
            "POSITION": 24,
            "NORMAL": 25,
            "TEXCOORD_0": 26
          },
          "indices": 27,
          "material": 6
        }
      ]
    },
    {
      "primitives": [
        {
          "mode": 4,
          "attributes": {
            "POSITION": 28,
            "NORMAL": 29,
            "TEXCOORD_0": 30
          },
          "indices": 31,
          "material": 7
        }
      ]
    },
    {
      "primitives": [
        {
          "mode": 4,
          "attributes": {
            "POSITION": 32,
            "NORMAL": 33,
            "TEXCOORD_0": 34
          },
          "indices": 35,
          "material": 8
        }
      ]
    },
    {
      "primitives": [
        {
          "mode": 4,
          "attributes": {
            "POSITION": 36,
            "NORMAL": 37,
            "TEXCOORD_0": 38
          },
          "indices": 39,
          "material": 9
        }
      ]
    },
    {
      "primitives": [
        {
          "mode": 4,
          "attributes": {
            "POSITION": 40,
            "NORMAL": 41,
            "TEXCOORD_0": 42
          },
          "indices": 43,
          "material": 10
        }
      ]
    },
    {
      "primitives": [
        {
          "mode": 4,
          "attributes": {
            "POSITION": 44,
            "NORMAL": 45,
            "TEXCOORD_0": 46
          },
          "indices": 47,
          "material": 11
        }
      ]
    },
    {
      "primitives": [
        {
          "mode": 4,
          "attributes": {
            "POSITION": 48,
            "NORMAL": 49,
            "TEXCOORD_0": 50
          },
          "indices": 51,
          "material": 12
        }
      ]
    },
    {
      "primitives": [
        {
          "mode": 4,
          "attributes": {
            "POSITION": 52,
            "NORMAL": 53,
            "TEXCOORD_0": 54
          },
          "indices": 55,
          "material": 13
        }
      ]
    },
    {
      "primitives": [
        {
          "mode": 4,
          "attributes": {
            "POSITION": 56,
            "NORMAL": 57,
            "TEXCOORD_0": 58
          },
          "indices": 59,
          "material": 14
        }
      ]
    },
    {
      "primitives": [
        {
          "mode": 4,
          "attributes": {
            "POSITION": 60,
            "NORMAL": 61,
            "TEXCOORD_0": 62
          },
          "indices": 63,
          "material": 15
        }
      ]
    },
    {
      "primitives": [
        {
          "mode": 4,
          "attributes": {
            "POSITION": 64,
            "NORMAL": 65,
            "TEXCOORD_0": 66
          },
          "indices": 67,
          "material": 16
        }
      ]
    },
    {
      "primitives": [
        {
          "mode": 4,
          "attributes": {
            "POSITION": 68,
            "NORMAL": 69,
            "TEXCOORD_0": 70
          },
          "indices": 71,
          "material": 17
        }
      ]
    },
    {
      "primitives": [
        {
          "mode": 4,
          "attributes": {
            "POSITION": 72,
            "NORMAL": 73,
            "TEXCOORD_0": 74
          },
          "indices": 75,
          "material": 18
        }
      ]
    },
    {
      "primitives": [
        {
          "mode": 4,
          "attributes": {
            "POSITION": 76,
            "NORMAL": 77,
            "TEXCOORD_0": 78
          },
          "indices": 79,
          "material": 19
        }
      ]
    },
    {
      "primitives": [
        {
          "mode": 4,
          "attributes": {
            "POSITION": 80,
            "NORMAL": 81,
            "TEXCOORD_0": 82
          },
          "indices": 83,
          "material": 20
        }
      ]
    },
    {
      "primitives": [
        {
          "mode": 4,
          "attributes": {
            "POSITION": 84,
            "NORMAL": 85,
            "TEXCOORD_0": 86
          },
          "indices": 87,
          "material": 21
        }
      ]
    },
    {
      "primitives": [
        {
          "mode": 4,
          "attributes": {
            "POSITION": 88,
            "NORMAL": 89,
            "TEXCOORD_0": 90
          },
          "indices": 91,
          "material": 22
        }
      ]
    },
    {
      "primitives": [
        {
          "mode": 4,
          "attributes": {
            "POSITION": 92,
            "NORMAL": 93,
            "TEXCOORD_0": 94
          },
          "indices": 95,
          "material": 23
        }
      ]
    },
    {
      "primitives": [
        {
          "mode": 4,
          "attributes": {
            "POSITION": 96,
            "NORMAL": 97,
            "TEXCOORD_0": 98
          },
          "indices": 99,
          "material": 24
        }
      ]
    },
    {
      "primitives": [
        {
          "mode": 4,
          "attributes": {
            "POSITION": 100,
            "NORMAL": 101,
            "TEXCOORD_0": 102
          },
          "indices": 103,
          "material": 25
        }
      ]
    },
    {
      "primitives": [
        {
          "mode": 4,
          "attributes": {
            "POSITION": 104,
            "NORMAL": 105,
            "TEXCOORD_0": 106
          },
          "indices": 107,
          "material": 26
        }
      ]
    }
  ],
  "extensionsUsed": [
    "KHR_materials_unlit"
  ],
  "images": [
    {
      "uri": "textures/manhattan-dusk.jpg",
      "name": "Generated Manhattan dusk wallpaper"
    }
  ],
  "samplers": [
    {
      "magFilter": 9729,
      "minFilter": 9987,
      "wrapS": 33071,
      "wrapT": 33071
    }
  ],
  "textures": [
    {
      "source": 0,
      "sampler": 0
    }
  ]
}
